<svg width="139" height="140" viewBox="0 0 139 140" fill="none" xmlns="http://www.w3.org/2000/svg">
<path d="M60.3203 113.428H53.5781V79.8364H85.4209V113.428H78.2416H76.2416V115.428V137.469H62.3203V115.428V113.428H60.3203Z" stroke="#D8D9DA" stroke-width="4"/>
<circle cx="69.4997" cy="60.7893" r="8.05346" stroke="#DB2E27" stroke-width="4"/>
<path d="M111.899 113.428H105.157V79.8364H137V113.428H129.821H127.821V115.428V137.469H113.899V115.428V113.428H111.899Z" stroke="#D8D9DA" stroke-width="4"/>
<circle cx="121.079" cy="60.7893" r="8.05346" stroke="#DB2E27" stroke-width="4"/>
<path d="M8.74214 113.428H2V79.8364H33.8428V113.428H26.6635H24.6635V115.428V137.469H10.7421V115.428V113.428H8.74214Z" stroke="#D8D9DA" stroke-width="4"/>
<circle cx="17.9216" cy="60.7893" r="8.05346" stroke="#DB2E27" stroke-width="4"/>
<circle cx="43.2732" cy="34.563" r="8.05346" stroke="#1B1B1B" stroke-width="4"/>
<circle cx="96.6003" cy="34.563" r="8.05346" stroke="#1B1B1B" stroke-width="4"/>
<circle cx="69.4997" cy="10.085" r="8.05346" stroke="#DB2E27" stroke-width="4"/>
</svg>
